<svg width="475" height="285" viewBox="0 0 475 285" fill="none" xmlns="http://www.w3.org/2000/svg">
<path d="M142.233 197.264C142.233 199.227 142.105 201.104 141.849 202.896H96.153C96.5797 209.125 99.1823 212.24 103.961 212.24C107.033 212.24 109.252 210.832 110.617 208.016H140.697C139.673 213.136 137.497 217.744 134.169 221.84C130.926 225.851 126.788 229.051 121.753 231.44C116.804 233.744 111.342 234.896 105.369 234.896C98.201 234.896 91.801 233.403 86.169 230.416C80.6223 227.429 76.2703 223.163 73.113 217.616C70.041 211.984 68.505 205.413 68.505 197.904C68.505 190.395 70.041 183.867 73.113 178.32C76.2703 172.688 80.6223 168.379 86.169 165.392C91.801 162.405 98.201 160.912 105.369 160.912C112.537 160.912 118.894 162.405 124.441 165.392C130.073 168.293 134.425 172.475 137.497 177.936C140.654 183.397 142.233 189.84 142.233 197.264ZM113.433 190.48C113.433 188.091 112.665 186.299 111.129 185.104C109.593 183.824 107.673 183.184 105.369 183.184C100.334 183.184 97.3903 185.616 96.537 190.48H113.433ZM171.956 139.28V234H143.54V139.28H171.956ZM191.446 156.048C186.497 156.048 182.529 154.725 179.542 152.08C176.555 149.435 175.062 146.107 175.062 142.096C175.062 138 176.555 134.629 179.542 131.984C182.529 129.253 186.497 127.888 191.446 127.888C196.31 127.888 200.235 129.253 203.222 131.984C206.209 134.629 207.702 138 207.702 142.096C207.702 146.107 206.209 149.435 203.222 152.08C200.235 154.725 196.31 156.048 191.446 156.048ZM205.526 161.808V234H177.11V161.808H205.526ZM258.04 234L245.88 217.744L236.792 234H205.56L229.752 195.984L204.28 161.808H236.024L248.184 178.192L257.4 161.808H288.632L263.672 198.928L289.784 234H258.04Z" fill="#B40000"/>
<path fill-rule="evenodd" clip-rule="evenodd" d="M177 234H187.637L215.778 168.971L206.6 165L205.436 167.69L189.24 160L177 185.777V234Z" fill="#141414"/>
<path d="M58.856 141.896C48.0187 141.896 39.0587 139.379 31.976 134.344C24.9787 129.224 21.1813 121.757 20.584 111.944H50.792C51.2187 117.149 53.5227 119.752 57.704 119.752C59.24 119.752 60.52 119.411 61.544 118.728C62.6533 117.96 63.208 116.808 63.208 115.272C63.208 113.139 62.056 111.432 59.752 110.152C57.448 108.787 53.864 107.251 49 105.544C43.1973 103.496 38.376 101.491 34.536 99.528C30.7813 97.5653 27.5387 94.7067 24.808 90.952C22.0773 87.1973 20.7547 82.376 20.84 76.488C20.84 70.6 22.3333 65.608 25.32 61.512C28.392 57.3307 32.5307 54.1733 37.736 52.04C43.0267 49.9067 48.9573 48.84 55.528 48.84C66.6213 48.84 75.4107 51.4 81.896 56.52C88.4667 61.64 91.9227 68.8507 92.264 78.152H61.672C61.5867 75.592 60.9467 73.7573 59.752 72.648C58.5573 71.5387 57.1067 70.984 55.4 70.984C54.2053 70.984 53.224 71.4107 52.456 72.264C51.688 73.032 51.304 74.1413 51.304 75.592C51.304 77.64 52.4133 79.3467 54.632 80.712C56.936 81.992 60.5627 83.5707 65.512 85.448C71.2293 87.5813 75.9227 89.6293 79.592 91.592C83.3467 93.5547 86.5893 96.2853 89.32 99.784C92.0507 103.283 93.416 107.677 93.416 112.968C93.416 118.515 92.0507 123.507 89.32 127.944C86.5893 132.296 82.6213 135.709 77.416 138.184C72.2107 140.659 66.024 141.896 58.856 141.896ZM93.16 104.904C93.16 97.3093 94.44 90.7387 97 85.192C99.6453 79.56 103.229 75.2933 107.752 72.392C112.275 69.4053 117.352 67.912 122.984 67.912C127.677 67.912 131.731 68.8933 135.144 70.856C138.557 72.7333 141.16 75.336 142.952 78.664V68.808H171.24V141H142.952V131.144C141.16 134.472 138.557 137.117 135.144 139.08C131.731 140.957 127.677 141.896 122.984 141.896C117.352 141.896 112.275 140.445 107.752 137.544C103.229 134.557 99.6453 130.291 97 124.744C94.44 119.112 93.16 112.499 93.16 104.904ZM142.952 104.904C142.952 101.064 141.971 98.0773 140.008 95.944C138.045 93.8107 135.528 92.744 132.456 92.744C129.384 92.744 126.867 93.8107 124.904 95.944C122.941 98.0773 121.96 101.064 121.96 104.904C121.96 108.744 122.941 111.731 124.904 113.864C126.867 115.997 129.384 117.064 132.456 117.064C135.528 117.064 138.045 115.997 140.008 113.864C141.971 111.731 142.952 108.744 142.952 104.904ZM259.136 68.808L212.928 175.56H181.824L200 137.416L169.92 68.808H201.536L215.104 105.416L227.776 68.808H259.136ZM286.241 82.12C289.142 77.9387 292.684 74.6107 296.865 72.136C301.046 69.576 305.398 68.296 309.921 68.296V98.632H301.857C296.481 98.632 292.513 99.5707 289.953 101.448C287.478 103.325 286.241 106.653 286.241 111.432V141H257.825V68.808H286.241V82.12ZM307.335 104.904C307.335 97.3093 308.615 90.7387 311.175 85.192C313.82 79.56 317.404 75.2933 321.927 72.392C326.45 69.4053 331.527 67.912 337.159 67.912C341.852 67.912 345.906 68.8933 349.319 70.856C352.732 72.7333 355.335 75.336 357.127 78.664V68.808H385.415V141H357.127V131.144C355.335 134.472 352.732 137.117 349.319 139.08C345.906 140.957 341.852 141.896 337.159 141.896C331.527 141.896 326.45 140.445 321.927 137.544C317.404 134.557 313.82 130.291 311.175 124.744C308.615 119.112 307.335 112.499 307.335 104.904ZM357.127 104.904C357.127 101.064 356.146 98.0773 354.183 95.944C352.22 93.8107 349.703 92.744 346.631 92.744C343.559 92.744 341.042 93.8107 339.079 95.944C337.116 98.0773 336.135 101.064 336.135 104.904C336.135 108.744 337.116 111.731 339.079 113.864C341.042 115.997 343.559 117.064 346.631 117.064C349.703 117.064 352.22 115.997 354.183 113.864C356.146 111.731 357.127 108.744 357.127 104.904ZM442.335 68.296C450.612 68.296 457.055 71.0693 461.663 76.616C466.356 82.1627 468.703 89.672 468.703 99.144V141H440.415V102.728C440.415 99.3147 439.476 96.6267 437.599 94.664C435.807 92.616 433.375 91.592 430.303 91.592C427.146 91.592 424.671 92.616 422.879 94.664C421.087 96.6267 420.191 99.3147 420.191 102.728V141H391.775V68.808H420.191V79.816C422.41 76.4027 425.354 73.6293 429.023 71.496C432.778 69.3627 437.215 68.296 442.335 68.296Z" fill="#141414"/>
<rect x="143" y="69" width="29" height="165" fill="url(#paint0_linear_47_2)"/>
<path d="M191.48 156.024C186.531 156.024 182.563 154.701 179.576 152.056C176.589 149.411 175.096 146.083 175.096 142.072C175.096 137.976 176.589 134.605 179.576 131.96C182.563 129.229 186.531 127.864 191.48 127.864C196.344 127.864 200.269 129.229 203.256 131.96C206.243 134.605 207.736 137.976 207.736 142.072C207.736 146.083 206.243 149.411 203.256 152.056C200.269 154.701 196.344 156.024 191.48 156.024Z" fill="#B40000"/>
<path d="M87.4 143.376V165.904H51.816V178.448H77.416V199.824H51.816V234H23.4V143.376H87.4Z" fill="#B40000"/>
<defs>
<linearGradient id="paint0_linear_47_2" x1="157.5" y1="69" x2="157.5" y2="234" gradientUnits="userSpaceOnUse">
<stop stop-color="#141414"/>
<stop offset="0.3" stop-color="#141414"/>
<stop offset="0.7" stop-color="#B40000"/>
<stop offset="1" stop-color="#600000"/>
</linearGradient>
</defs>
</svg>
